<?xml version="1.0" encoding="UTF-8" standalone="no"?>
<!DOCTYPE svg PUBLIC "-//W3C//DTD SVG 1.1//EN" "http://www.w3.org/Graphics/SVG/1.1/DTD/svg11.dtd">
<svg width="100%" height="100%" viewBox="0 0 71 71" version="1.1" xmlns="http://www.w3.org/2000/svg" xmlns:xlink="http://www.w3.org/1999/xlink" xml:space="preserve" xmlns:serif="http://www.serif.com/" style="fill-rule:evenodd;clip-rule:evenodd;stroke-linejoin:round;stroke-miterlimit:2;">
    <path d="M70.817,17.571L70.817,52.293C70.817,61.875 63.037,69.654 53.456,69.654L18.733,69.654C9.152,69.654 1.372,61.875 1.372,52.293L1.372,17.571C1.372,7.989 9.152,0.21 18.733,0.21L53.456,0.21C63.037,0.21 70.817,7.989 70.817,17.571ZM36.095,40.872C38.248,40.91 41.348,38.162 42.907,37.03C55.225,28.091 56.162,27.312 59.002,25.084C59.541,24.666 59.856,24.017 59.856,23.33L59.856,21.566C59.856,19.106 57.861,17.111 55.401,17.111L16.788,17.111C14.328,17.111 12.333,19.106 12.333,21.566L12.333,23.33C12.333,24.017 12.648,24.657 13.187,25.084C16.027,27.302 16.964,28.091 29.282,37.03C30.841,38.162 33.941,40.91 36.095,40.872ZM58.956,28.88C56.877,30.495 54.129,32.556 44.662,39.434C42.778,40.808 39.408,43.88 36.095,43.852C32.799,43.871 29.495,40.863 27.537,39.434C18.069,32.556 15.312,30.505 13.233,28.89C12.862,28.602 12.333,28.862 12.333,29.326L12.333,48.298C12.333,50.758 14.328,52.753 16.788,52.753L55.401,52.753C57.861,52.753 59.856,50.758 59.856,48.298L59.856,29.316C59.856,28.862 59.318,28.593 58.956,28.88Z" style="fill:rgb(137,168,144);"/>
</svg>
