<?xml version="1.0" encoding="utf-8"?>
<!-- Svg Vector Icons : http://www.onlinewebfonts.com/icon -->
<!DOCTYPE svg PUBLIC "-//W3C//DTD SVG 1.1//EN" "http://www.w3.org/Graphics/SVG/1.1/DTD/svg11.dtd">
<svg version="1.1" xmlns="http://www.w3.org/2000/svg" xmlns:xlink="http://www.w3.org/1999/xlink" x="0px" y="0px" viewBox="0 0 256 256" enable-background="new 0 0 256 256" xml:space="preserve">
<metadata> Svg Vector Icons : http://www.onlinewebfonts.com/icon </metadata>
<g><g><path fill="#000000" d="M159.2,96.8c-2.3-2.3-5.9-2.3-8.2,0l-23,23l-23-23c-2.3-2.3-5.9-2.3-8.2,0c-2.3,2.3-2.3,5.9,0,8.2l23,23l-23,23c-2.3,2.3-2.3,5.9,0,8.2c1.1,1.1,2.6,1.7,4.1,1.7c1.5,0,3-0.6,4.1-1.7l23-23l23,23c1.1,1.1,2.6,1.7,4.1,1.7c1.5,0,3-0.6,4.1-1.7c2.3-2.3,2.3-5.9,0-8.2l-22.9-23l23-23C161.4,102.8,161.4,99.1,159.2,96.8z"/><path fill="#000000" d="M128,10C62.9,10,10,62.9,10,128c0,65.1,52.9,118,118,118c65.1,0,118-52.9,118-118C246,62.9,193.1,10,128,10z M128,234.4c-58.7,0-106.4-47.7-106.4-106.4C21.6,69.3,69.3,21.6,128,21.6c58.7,0,106.4,47.7,106.4,106.4C234.4,186.7,186.7,234.4,128,234.4z"/></g></g>
</svg>