<?xml version="1.0" encoding="UTF-8" standalone="no"?>
<!DOCTYPE svg PUBLIC "-//W3C//DTD SVG 1.1//EN" "http://www.w3.org/Graphics/SVG/1.1/DTD/svg11.dtd">
<svg width="100%" height="100%" viewBox="0 0 71 71" version="1.1" xmlns="http://www.w3.org/2000/svg" xmlns:xlink="http://www.w3.org/1999/xlink" xml:space="preserve" xmlns:serif="http://www.serif.com/" style="fill-rule:evenodd;clip-rule:evenodd;stroke-linejoin:round;stroke-miterlimit:2;">
    <path d="M70.818,17.571L70.818,52.293C70.818,61.875 63.039,69.654 53.457,69.654L18.735,69.654C9.153,69.654 1.374,61.875 1.374,52.293L1.374,17.571C1.374,7.989 9.153,0.21 18.735,0.21L53.457,0.21C63.039,0.21 70.818,7.989 70.818,17.571ZM49.794,13.61L37.725,27.237L27.418,13.61L12.485,13.61L30.266,36.899L13.429,56.254L20.667,56.254L33.728,41.336L45.136,56.254L59.707,56.254L41.139,31.706L57.032,13.61L49.794,13.61ZM47.26,52.005L20.998,17.702L25.309,17.702L51.273,52.005L47.26,52.005Z" style="fill:rgb(137,168,144);"/>
</svg>
