<?xml version="1.0" encoding="UTF-8" standalone="no"?>
<!DOCTYPE svg PUBLIC "-//W3C//DTD SVG 1.1//EN" "http://www.w3.org/Graphics/SVG/1.1/DTD/svg11.dtd">
<svg width="100%" height="100%" viewBox="0 0 71 71" version="1.1" xmlns="http://www.w3.org/2000/svg" xmlns:xlink="http://www.w3.org/1999/xlink" xml:space="preserve" xmlns:serif="http://www.serif.com/" style="fill-rule:evenodd;clip-rule:evenodd;stroke-linejoin:round;stroke-miterlimit:2;">
    <path d="M70.817,17.571L70.817,52.293C70.817,61.875 63.038,69.654 53.456,69.654L18.734,69.654C9.152,69.654 1.373,61.875 1.373,52.293L1.373,17.571C1.373,7.989 9.152,0.21 18.734,0.21L53.456,0.21C63.038,0.21 70.817,7.989 70.817,17.571ZM59.334,22.556C58.612,17.248 53.937,13.065 48.394,12.254C47.459,12.117 43.916,11.619 35.709,11.619L35.648,11.619C27.438,11.619 25.677,12.117 24.742,12.254C19.354,13.042 14.433,16.801 13.239,22.173C12.665,24.818 12.604,27.75 12.711,30.44C12.863,34.298 12.892,38.149 13.246,41.991C13.491,44.543 13.918,47.075 14.524,49.567C15.659,54.17 20.253,58.001 24.753,59.564C29.572,61.194 34.754,61.464 39.72,60.345C40.266,60.22 40.805,60.074 41.338,59.907C42.545,59.528 43.959,59.104 44.999,58.358C45.013,58.348 45.025,58.334 45.033,58.319C45.041,58.303 45.046,58.286 45.047,58.268L45.047,54.545C45.046,54.529 45.042,54.513 45.035,54.498C45.028,54.483 45.017,54.47 45.004,54.46C44.991,54.45 44.976,54.443 44.959,54.44C44.943,54.436 44.926,54.436 44.91,54.44C41.729,55.192 38.469,55.568 35.198,55.562C29.57,55.562 28.056,52.92 27.622,51.819C27.274,50.868 27.052,49.876 26.964,48.869C26.963,48.852 26.966,48.835 26.973,48.819C26.98,48.804 26.991,48.79 27.004,48.78C27.017,48.769 27.033,48.761 27.05,48.758C27.066,48.754 27.084,48.754 27.1,48.759C30.228,49.505 33.435,49.882 36.653,49.881C37.427,49.881 38.199,49.881 38.973,49.861C42.209,49.771 45.621,49.607 48.805,48.992C48.884,48.976 48.964,48.963 49.032,48.943C54.055,47.988 58.835,44.993 59.32,37.408C59.339,37.109 59.384,34.28 59.384,33.97C59.386,32.917 59.727,26.499 59.334,22.556ZM51.377,28.52L51.377,41.708L46.095,41.708L46.095,28.909C46.095,26.214 44.96,24.84 42.652,24.84C40.114,24.84 38.843,26.466 38.843,29.677L38.843,36.683L33.594,36.683L33.594,29.677C33.594,26.466 32.32,24.84 29.783,24.84C27.488,24.84 26.342,26.214 26.342,28.909L26.342,41.708L21.063,41.708L21.063,28.52C21.063,25.826 21.758,23.685 23.149,22.098C24.583,20.515 26.465,19.703 28.8,19.703C31.503,19.703 33.546,20.731 34.908,22.786L36.222,24.968L37.538,22.786C38.9,20.731 40.943,19.703 43.642,19.703C45.975,19.703 47.856,20.515 49.295,22.098C50.684,23.684 51.378,25.824 51.377,28.52Z" style="fill:rgb(137,168,144);"/>
</svg>
